# xmcd
#
# Track frame offsets: 
#        150
#        23059
#        50363
#        68580
#        87989
#        105274
#        130406
#        149702
#        173878
#        197320
#
# Disc length: 2868 seconds
#
# Revision: 0
# Processed by: cddbd v1.5.2PL0 Copyright (c) Steve Scherf et al.
# Submitted via: ExactAudioCopy v1.0b3
#
DISCID=810b320a
DTITLE=Mong Thi - Con Gai Bay Gio
DYEAR=1998
DGENRE=
TTITLE0=Nam muoi bay tuoi
TTITLE1=Nuoc cuon hoa troi
TTITLE2=Con gai bay gio
TTITLE3=Trai tim khong ngu yen
TTITLE4=Thi tham mua Xuan
TTITLE5=Nhu luc binh troi
TTITLE6=Nguoi thuong ke nho
TTITLE7=Da xa roi
TTITLE8=Lo lam
TTITLE9=Chieu Xuan
EXTD=
EXTT0=
EXTT1=
EXTT2=
EXTT3=
EXTT4=
EXTT5=
EXTT6=
EXTT7=
EXTT8=
EXTT9=
PLAYORDER=
